<svg version="1.2" xmlns="http://www.w3.org/2000/svg" viewBox="0 0 139 72" width="300" height="155">
	<title>SASO_logo_7782856ee5-svg</title>
	<style>
		.s0 { fill: #529c44 } 
		.s1 { fill: #0096b6 } 
		.s2 { fill: #8d5316 } 
		.s3 { fill: #ffffff } 
		.s4 { fill: #58595b } 
	</style>
	<g id="surface1">
		<path id="Layer" class="s0" d="m110.4 8.8q-2.3 2.7-4.2 5.6-0.6 1-1.2 2-0.6 1-1.1 2-1.6 3.1-2.7 6.4-1.6 4.5-2.2 9.3l12.3-7.1q1-2.8 2.5-5.5 1.6-2.6 3.6-5v-14.2q-3.9 3-7 6.5z"/>
		<path id="Layer" class="s1" d="m118.7 16.5q1.9 2.4 3.5 5 1.5 2.7 2.5 5.5l12.3 7.1q-0.6-4.8-2.1-9.3-1.1-3.3-2.7-6.4-0.6-1-1.2-2-0.5-1-1.2-2-1.8-2.9-4.1-5.6-3.2-3.5-7-6.5z"/>
		<path id="Layer" class="s2" d="m112 28.1c2 0.4 4 0.6 6 0.6h0.1q3 0 6-0.6l12.3 7.1q-4.5 1.9-9.1 2.8-3.4 0.7-6.9 0.9-1.2 0-2.3 0-1.2 0-2.4 0-3.4-0.2-6.9-0.8-4.6-1-9.1-2.8z"/>
		<path id="Layer" class="s3" d="m110.2 36.1c-1-0.2-1.5-0.8-1.6-0.9l0.6-0.6c0.1 0.1 0.5 0.5 1.1 0.6 0.5 0.1 0.8-0.1 0.9-0.5q0-0.2-0.1-0.4c-0.2-0.4-1.1-0.6-1.5-1.2-0.2-0.3-0.4-0.6-0.3-1 0.2-0.9 1-1.4 2-1.2 1 0.1 1.4 0.7 1.5 0.8l-0.6 0.6c-0.1-0.1-0.5-0.5-1-0.6-0.4 0-0.8 0.1-0.8 0.4 0 0.2 0 0.2 0 0.3 0.2 0.3 1.2 0.7 1.7 1.3 0.2 0.3 0.3 0.6 0.2 1.1-0.2 0.9-1 1.5-2.1 1.3z"/>
		<path id="Layer" fill-rule="evenodd" class="s3" d="m116.5 36.6l-0.3-1.1-1.8-0.1-0.5 1h-1l2.1-5 1.1 0.1 1.5 5.1zm-1-3.9l-0.8 2h1.3z"/>
		<path id="Layer" class="s3" d="m120 36.7c-1.1 0-1.7-0.5-1.8-0.5l0.5-0.8c0.1 0.1 0.6 0.4 1.2 0.4 0.5 0 0.8-0.3 0.8-0.6 0-0.2-0.1-0.3-0.2-0.4-0.3-0.3-1.2-0.4-1.8-0.9-0.2-0.2-0.4-0.5-0.4-0.9 0-0.9 0.7-1.5 1.7-1.6 1 0 1.5 0.5 1.6 0.5l-0.5 0.7c0 0-0.5-0.4-1-0.3-0.5 0-0.8 0.2-0.8 0.5 0 0.2 0.1 0.3 0.2 0.3 0.2 0.3 1.3 0.4 1.8 0.9 0.3 0.3 0.4 0.6 0.4 1 0.1 1-0.6 1.6-1.7 1.7z"/>
		<path id="Layer" fill-rule="evenodd" class="s3" d="m125.3 36.2c-1.4 0.2-2.6-0.7-2.8-2.3-0.2-1.5 0.6-2.7 2-2.9 1.5-0.2 2.6 0.7 2.9 2.2 0.2 1.6-0.6 2.8-2.1 3zm-0.7-4.3c-0.8 0.1-1.2 0.9-1 1.9 0.1 1.1 0.8 1.6 1.6 1.5 1.1-0.1 1.2-1.2 1.1-2-0.2-0.9-0.8-1.6-1.7-1.4z"/>
		<path id="Layer" class="s3" d="m110.2 36.1c-1-0.2-1.5-0.8-1.6-0.9l0.6-0.6c0.1 0.1 0.5 0.5 1.1 0.6 0.5 0.1 0.8-0.1 0.9-0.5q0-0.2-0.1-0.4c-0.2-0.4-1.1-0.6-1.5-1.2-0.2-0.3-0.4-0.6-0.3-1 0.2-0.9 1-1.4 2-1.2 1 0.1 1.4 0.7 1.5 0.8l-0.6 0.6c-0.1-0.1-0.5-0.5-1-0.6-0.4 0-0.8 0.1-0.8 0.4 0 0.2 0 0.2 0 0.3 0.2 0.3 1.2 0.7 1.7 1.3 0.2 0.3 0.3 0.6 0.2 1.1-0.2 0.9-1 1.5-2.1 1.3z"/>
		<path id="Layer" fill-rule="evenodd" class="s3" d="m116.5 36.6l-0.3-1.1-1.8-0.1-0.5 1h-1l2.1-5 1.1 0.1 1.5 5.1zm-1-3.9l-0.8 2h1.3z"/>
		<path id="Layer" class="s3" d="m120 36.7c-1.1 0-1.7-0.5-1.8-0.5l0.5-0.8c0.1 0.1 0.6 0.4 1.2 0.4 0.5 0 0.8-0.3 0.8-0.6 0-0.2-0.1-0.3-0.2-0.4-0.3-0.3-1.2-0.4-1.8-0.9-0.2-0.2-0.4-0.5-0.4-0.9 0-0.9 0.7-1.5 1.7-1.6 1 0 1.5 0.5 1.6 0.5l-0.5 0.7c0 0-0.5-0.4-1-0.3-0.5 0-0.8 0.2-0.8 0.5 0 0.2 0.1 0.3 0.2 0.3 0.2 0.3 1.3 0.4 1.8 0.9 0.3 0.3 0.4 0.6 0.4 1 0.1 1-0.6 1.6-1.7 1.7z"/>
		<path id="Layer" fill-rule="evenodd" class="s3" d="m125.3 36.2c-1.4 0.2-2.6-0.7-2.8-2.3-0.2-1.5 0.6-2.7 2-2.9 1.5-0.2 2.6 0.7 2.9 2.2 0.2 1.6-0.6 2.8-2.1 3zm-0.7-4.3c-0.8 0.1-1.2 0.9-1 1.9 0.1 1.1 0.8 1.6 1.6 1.5 1.1-0.1 1.2-1.2 1.1-2-0.2-0.9-0.8-1.6-1.7-1.4z"/>
		<path id="Layer" class="s4" d="m7.6 61.5v6.2h-1.1v-2.7h-2.5v2.7h-1.1v-6.2h1.1v2.6h2.5v-2.6z"/>
		<path id="Layer" fill-rule="evenodd" class="s4" d="m12.2 67.2c-0.3 0.3-0.8 0.5-1.6 0.5-1.5 0-2.3-0.8-2.3-2.5 0-1.7 0.9-2.5 2.2-2.5 1.2 0 1.9 0.8 1.9 1.9 0 0.3 0 0.5-0.1 0.9h-2.9c0 0.9 0.4 1.4 1.3 1.4 0.5 0 0.9-0.3 1.1-0.5zm-2.9-2.4h2v-0.2c0-0.7-0.3-1-0.9-1-0.6-0.1-1.1 0.4-1.1 1.2z"/>
		<path id="Layer" fill-rule="evenodd" class="s4" d="m16.4 64.3v2c0 0.3 0.1 0.5 0.4 0.5h0.1v0.8q-0.2 0.1-0.5 0.1c-0.5 0-0.7-0.2-0.9-0.5-0.2 0.2-0.6 0.6-1.3 0.6-0.9 0-1.4-0.7-1.4-1.4 0-1.1 1-1.6 2.6-1.5v-0.5c0-0.6-0.3-0.8-0.8-0.8-0.6 0-0.8 0.3-1 0.5l-0.7-0.5c0.1-0.3 0.6-0.9 1.7-0.9 1.1 0 1.8 0.4 1.8 1.6zm-1 1.3c-1 0-1.6 0.2-1.6 0.7 0 0.3 0.2 0.6 0.6 0.6 0.5 0 0.8-0.2 1-0.5z"/>
		<path id="Layer" class="s4" d="m18.7 65.3c0.2 0.6 0.3 0.9 0.3 1.3h0.1c0-0.3 0.1-0.7 0.3-1.3l0.7-2.5h1.1l-1.5 4.8h-1.3l-1.6-4.8h1.1z"/>
		<path id="Layer" class="s4" d="m21.3 68.5q0.2 0.1 0.5 0.1 0.8 0 0.9-0.9l-1.8-4.9h1.2l0.7 1.9c0.2 0.7 0.4 1.3 0.5 1.7 0.1-0.4 0.2-0.9 0.4-1.7l0.6-1.9h1.1l-1.7 5.1c-0.3 0.9-0.8 1.6-1.8 1.6-0.3 0-0.6-0.1-0.8-0.1z"/>
		<path id="Layer" class="s4" d="m27.8 67.7v-6.2h3.5v0.9h-2.4v1.7h2.1v0.9h-2.1v1.7h2.5v0.9h-3.6z"/>
		<path id="Layer" fill-rule="evenodd" class="s4" d="m34.8 69.4v-2c-0.2 0.2-0.6 0.3-1.1 0.3-1 0-1.9-0.6-1.9-2.4 0-1.4 0.8-2.6 2.4-2.6 0.7 0 1.3 0.2 1.6 0.3v6.4zm-1.9-4.1c0 1.3 0.5 1.5 1.1 1.5 0.3 0 0.7-0.1 0.8-0.3v-2.8q-0.2-0.1-0.7-0.1c-0.7 0-1.2 0.6-1.2 1.7z"/>
		<path id="Layer" class="s4" d="m36.7 62.8h1v3.1q0.1 1 0.9 1c0.6 0 0.9-0.4 1-0.8v-3.3h1v4.9h-0.9l-0.1-0.5c-0.3 0.3-0.7 0.6-1.4 0.6q-1.5 0-1.5-1.7z"/>
		<path id="Layer" class="s4" d="m42.1 60.8c0.4 0 0.7 0.3 0.7 0.7 0 0.3-0.3 0.6-0.7 0.6-0.4 0-0.6-0.3-0.6-0.6 0-0.4 0.2-0.7 0.6-0.7zm-0.5 2h1.1v4.9h-1.1z"/>
		<path id="Layer" fill-rule="evenodd" class="s4" d="m45.4 67.7q-0.4 0-0.7-0.1v1.8h-1.1v-6.6h0.8l0.3 0.4c0.2-0.2 0.6-0.5 1.2-0.5 1.1 0 1.8 0.8 1.8 2.3 0 1.8-1 2.7-2.3 2.7zm-0.1-0.9c0.8 0 1.3-0.5 1.3-1.7 0-1.1-0.5-1.5-1.1-1.5-0.4 0-0.7 0.2-0.8 0.5v2.6c0.2 0 0.5 0.1 0.6 0.1z"/>
		<path id="Layer" class="s4" d="m53.4 62.7c0.9 0 1.5 0.5 1.5 1.6v3.4h-1.1v-3.2c0-0.6-0.3-0.9-0.8-0.9-0.4 0-0.8 0.3-0.9 0.7v3.4h-1.1v-3.1q0-1-0.8-1c-0.4 0-0.7 0.3-0.8 0.7v3.4h-1.1v-4.9h0.8l0.2 0.5h0.1c0.2-0.3 0.7-0.6 1.2-0.6 0.8 0 1.1 0.3 1.3 0.7 0.3-0.4 0.7-0.7 1.5-0.7z"/>
		<path id="Layer" fill-rule="evenodd" class="s4" d="m59.4 67.2c-0.4 0.3-0.9 0.5-1.7 0.5-1.5 0-2.3-0.8-2.3-2.5 0-1.7 1-2.5 2.2-2.5 1.3 0 1.9 0.8 1.9 1.9 0 0.3 0 0.5 0 0.9h-3c0 0.9 0.4 1.4 1.3 1.4 0.5 0 0.9-0.3 1.1-0.5zm-2.9-2.4h2v-0.2c0-0.7-0.3-1-0.9-1-0.6-0.1-1 0.4-1.1 1.2z"/>
		<path id="Layer" class="s4" d="m64.1 67.7h-1.1v-3.2c0-0.6-0.3-0.9-0.8-0.9-0.4 0-0.8 0.3-1 0.7v3.4h-1v-4.9h0.8l0.2 0.5c0.3-0.3 0.8-0.6 1.4-0.6 0.9 0 1.5 0.5 1.5 1.6z"/>
		<path id="Layer" class="s4" d="m65.1 66.2v-2.6h-0.7v-0.7l0.7-0.2 0.3-1.2h0.7v1.3h1.3v0.8h-1.3v2.6c0 0.4 0.2 0.6 0.6 0.6q0.4 0 0.7-0.2l0.3 0.8c-0.2 0.2-0.6 0.3-1.3 0.3-0.8 0-1.3-0.4-1.3-1.5z"/>
		<path id="Layer" fill-rule="evenodd" class="s4" d="m71.9 61.5c1.3 0 2.1 0.5 2.1 1.8 0 1-0.6 1.6-1.3 1.7 0.3 0.1 0.5 0.4 0.8 0.9l1 1.7h-1.3l-1.1-1.9c-0.1-0.3-0.4-0.4-0.7-0.4h-0.2v2.4h-1.1v-6.2zm-0.7 2.9h0.6c0.7 0 1.1-0.3 1.1-1 0-0.7-0.4-1-1.1-1h-0.6z"/>
		<path id="Layer" fill-rule="evenodd" class="s4" d="m78.5 67.2c-0.3 0.3-0.8 0.5-1.7 0.5-1.4 0-2.2-0.8-2.2-2.5 0-1.7 0.9-2.5 2.2-2.5 1.2 0 1.9 0.8 1.9 1.9 0 0.3 0 0.5-0.1 0.9h-3c0.1 0.9 0.5 1.4 1.4 1.4 0.5 0 0.9-0.3 1.1-0.5zm-2.9-2.4h2v-0.2c0-0.7-0.3-1-0.9-1-0.6-0.1-1.1 0.4-1.1 1.2z"/>
		<path id="Layer" fill-rule="evenodd" class="s4" d="m83.1 67.5c0 1.3-0.9 2-2.2 2-1.1 0-1.5-0.3-1.8-0.6l0.6-0.8c0.3 0.3 0.7 0.5 1.3 0.5 0.7 0 1-0.3 1-1.1v-0.3c-0.2 0.2-0.5 0.3-1.1 0.3-1 0-1.8-0.5-1.8-2.2 0-1.5 0.7-2.6 2.3-2.6 0.8 0 1.3 0.1 1.7 0.3v4.5zm-1.7-3.9c-0.8 0-1.3 0.5-1.3 1.6 0 1.2 0.5 1.4 1.1 1.4 0.3 0 0.6-0.1 0.8-0.3v-2.6q-0.2-0.1-0.6-0.1z"/>
		<path id="Layer" class="s4" d="m83.9 62.8h1.1v3.1q0 1 0.8 1c0.6 0 0.9-0.4 1-0.8v-3.3h1.1v4.9h-0.9l-0.2-0.5c-0.3 0.3-0.7 0.6-1.3 0.6q-1.6 0-1.6-1.7z"/>
		<path id="Layer" class="s4" d="m89.8 61v5.3c0 0.4 0.2 0.5 0.5 0.5q0.1 0 0.2 0v0.8q-0.2 0.1-0.6 0.1c-0.7 0-1.1-0.4-1.1-1.1v-5.6z"/>
		<path id="Layer" fill-rule="evenodd" class="s4" d="m94.3 64.3v2c0 0.3 0.1 0.5 0.4 0.5h0.1v0.8q-0.2 0.1-0.4 0.1c-0.5 0-0.8-0.2-0.9-0.5h-0.1c-0.2 0.2-0.5 0.6-1.3 0.6-0.9 0-1.4-0.7-1.4-1.4 0-1.1 1-1.6 2.6-1.5v-0.5c0-0.6-0.3-0.8-0.8-0.8-0.5 0-0.8 0.3-0.9 0.5l-0.8-0.5c0.2-0.3 0.7-0.9 1.7-0.9 1.2 0 1.8 0.4 1.8 1.6zm-1 1.3c-0.9 0-1.5 0.2-1.5 0.7 0 0.3 0.2 0.6 0.6 0.6 0.4 0 0.7-0.2 0.9-0.5z"/>
		<path id="Layer" class="s4" d="m95.4 66.2v-2.6h-0.6v-0.7l0.6-0.2 0.4-1.2h0.7v1.3h1.2v0.8h-1.2v2.6c0 0.4 0.2 0.6 0.6 0.6q0.4 0 0.7-0.2l0.2 0.8c-0.1 0.1-0.5 0.3-1.2 0.3-0.8 0-1.4-0.4-1.4-1.5z"/>
		<path id="Layer" fill-rule="evenodd" class="s4" d="m98 65.2c0-1.5 0.6-2.5 2.2-2.5 1.6 0 2.1 1 2.1 2.5 0 1.5-0.6 2.5-2.1 2.5-1.6 0-2.2-1-2.2-2.5zm2.2 1.7c0.8 0 1-0.6 1-1.6 0-1.2-0.3-1.7-1-1.7-0.8 0-1 0.5-1 1.6 0 1.1 0.2 1.7 1 1.7z"/>
		<path id="Layer" class="s4" d="m105.7 63.8q-0.3 0-0.5 0c-0.5 0-0.9 0.1-1.2 0.4v3.5h-1.1v-4.9h0.9l0.2 0.6c0.2-0.4 0.7-0.7 1.3-0.7 0.1 0 0.3 0 0.4 0 0 0 0 1.1 0 1.1z"/>
		<path id="Layer" class="s4" d="m105.8 68.5q0.2 0.1 0.5 0.1 0.8 0 0.9-0.9l-1.8-4.9h1.2l0.6 1.9c0.3 0.7 0.4 1.3 0.5 1.7h0.1c0-0.4 0.1-0.9 0.4-1.7l0.5-1.9h1.1l-1.6 5.1c-0.3 0.9-0.8 1.6-1.9 1.6-0.3 0-0.6-0.1-0.7-0.1z"/>
		<path id="Layer" class="s4" d="m114.6 61.4c1.1 0 1.6 0.5 1.8 0.7l-0.7 0.8c-0.2-0.3-0.5-0.5-1.2-0.5-0.9 0-1.4 0.7-1.4 2.2 0 1.4 0.5 2.2 1.5 2.2 0.6 0 1-0.2 1.2-0.5l0.6 0.8c-0.3 0.3-0.9 0.7-1.9 0.7-1.8 0-2.5-1.3-2.5-3.1 0-2 0.9-3.3 2.6-3.3z"/>
		<path id="Layer" fill-rule="evenodd" class="s4" d="m120.5 67.2c-0.3 0.3-0.8 0.5-1.7 0.5-1.5 0-2.2-0.8-2.2-2.5 0-1.7 0.9-2.5 2.2-2.5 1.2 0 1.9 0.8 1.9 1.9 0 0.3 0 0.5-0.1 0.9h-3c0.1 0.9 0.5 1.4 1.3 1.4 0.6 0 1-0.3 1.1-0.5zm-2.8-2.4h2v-0.2c0-0.7-0.3-1-1-1-0.5-0.1-1 0.4-1 1.2z"/>
		<path id="Layer" class="s4" d="m125.2 67.7h-1v-3.2c0-0.6-0.3-0.9-0.8-0.9-0.5 0-0.9 0.3-1 0.7v3.4h-1.1v-4.9h0.8l0.2 0.5h0.1c0.2-0.3 0.7-0.6 1.3-0.6 1 0 1.5 0.5 1.5 1.6z"/>
		<path id="Layer" class="s4" d="m126.2 66.2v-2.6h-0.7v-0.7l0.7-0.2 0.4-1.2h0.6v1.3h1.3v0.8h-1.3v2.6c0 0.4 0.3 0.6 0.6 0.6q0.5 0 0.7-0.2l0.3 0.8c-0.2 0.1-0.5 0.3-1.2 0.3-0.9 0-1.4-0.4-1.4-1.5z"/>
		<path id="Layer" fill-rule="evenodd" class="s4" d="m132.8 67.2c-0.4 0.3-0.9 0.5-1.7 0.5-1.5 0-2.3-0.8-2.3-2.5 0-1.7 0.9-2.5 2.2-2.5 1.2 0 1.9 0.8 1.9 1.9 0 0.3 0 0.5 0 0.9h-3c0 0.9 0.4 1.4 1.3 1.4 0.5 0 0.9-0.3 1.1-0.5zm-2.9-2.4h2v-0.2c0-0.7-0.3-1-0.9-1-0.6-0.1-1 0.4-1.1 1.2z"/>
		<path id="Layer" class="s4" d="m136.3 63.8q-0.3 0-0.5 0c-0.5 0-0.9 0.1-1.2 0.4v3.5h-1v-4.9h0.8l0.2 0.6c0.2-0.4 0.7-0.7 1.3-0.7 0.2 0 0.3 0 0.4 0v1.1z"/>
		<path id="Layer" class="s4" d="m4.6 55.4q-0.8 0-1.3-0.3-0.5-0.2-0.7-0.7-0.3-0.5-0.3-1.3 0-0.7 0.3-1.2 0.2-0.5 0.7-0.8 0.5-0.3 1.3-0.3h2v4h-1.2v-3.2l0.3 0.3h-1.1q-0.4 0-0.6 0.1-0.3 0.1-0.4 0.3-0.1 0.3-0.1 0.8 0 0.6 0.1 0.8 0.1 0.3 0.3 0.3 0.3 0.1 0.7 0.1h2.9v1.1zm-1.3-5.4v-1h1.2v1zm1.6 0v-1h1.2v1zm2.7 5.4v-1.1q0 0 0.1 0.1 0 0 0 0.1 0 0 0 0.1 0.1 0.1 0.1 0.2 0 0.2-0.1 0.3 0 0.1 0 0.1 0 0.1 0 0.1-0.1 0.1-0.1 0.1z"/>
		<path id="Layer" class="s4" d="m7.6 55.4q-0.1 0-0.1-0.1-0.1 0-0.1-0.1 0 0 0-0.1 0-0.1 0-0.2 0-0.2 0-0.3 0-0.1 0.1-0.2 0-0.1 0.1-0.1v1.1zm0 0v-1.1h2.2v1.1zm2.3 0v-1.1q0 0 0.1 0.1 0 0 0 0.1 0 0 0.1 0.1 0 0.1 0 0.2 0 0.2 0 0.3-0.1 0.1-0.1 0.1 0 0.1 0 0.1-0.1 0.1-0.1 0.1z"/>
		<path id="Layer" class="s4" d="m9.8 55.4q0 0-0.1-0.1 0 0 0-0.1 0 0-0.1-0.1 0-0.1 0-0.2 0-0.2 0.1-0.3 0-0.1 0-0.2 0.1-0.1 0.1-0.1v1.1zm0 0v-1.1h1.1v1.1zm1 0v-6.4h1.2v6.4zm1.2 0v-1.1h0.9v1.1zm1 0v-1.1q0 0 0.1 0.1 0 0 0 0.1 0.1 0 0.1 0.1 0 0.1 0 0.2 0 0.2 0 0.3 0 0.1-0.1 0.1 0 0.1 0 0.1-0.1 0.1-0.1 0.1z"/>
		<path id="Layer" class="s4" d="m13 55.4q-0.1 0-0.1-0.1 0 0 0-0.1-0.1 0-0.1-0.1 0-0.1 0-0.2 0-0.2 0-0.3 0.1-0.1 0.1-0.2 0-0.1 0.1-0.1v1.1zm0 0v-1.1h2.1l-0.7 0.6v-4.1h1.2v4.6zm0.4 1.9v-1h1.1v1zm1.7 0v-1h1.1v1zm0.7-1.9v-1.1h1.1v1.1zm1.2 0v-1.1q0 0 0.1 0.1 0 0 0 0.1 0 0 0 0.1 0.1 0.1 0.1 0.2 0 0.2-0.1 0.3 0 0.1 0 0.1 0 0.1 0 0.1-0.1 0.1-0.1 0.1z"/>
		<path id="Layer" fill-rule="evenodd" class="s4" d="m16.8 55.4q-0.1 0-0.1-0.1-0.1 0-0.1-0.1 0 0 0-0.1 0-0.1 0-0.2 0-0.2 0-0.3 0-0.1 0.1-0.2 0-0.1 0.1-0.1v1.1q0 0 0 0zm0-1.1h1q-0.2-0.4-0.3-1.2 0.1-0.8 0.3-1.3 0.2-0.5 0.7-0.7 0.5-0.3 1.3-0.3h2v3.5h1v1.1h-1-5c0-0.2 0-1.1 0-1.1q0 0 0 0zm3.8 0v0.3l0.4-0.3zm0-2.4h0.3l-0.3-0.3zm-0.8 0q-0.4 0-0.7 0.1-0.2 0.1-0.3 0.4-0.1 0.2-0.1 0.7 0 0.6 0.1 0.8 0.1 0.3 0.3 0.4 0.3 0.1 0.7 0.1h0.8v-2.5zm0 2.5h-2q0 0 0 0 0.2 0.5 0.7 0.7 0.5 0.2 1.3 0.2zm-1.3-4.3v-1.1h1.2v1.1zm1.6 0v-1.1h1.2v1.1zm2.7 5.3q0.1 0 0.1-0.1 0-0.1 0-0.2 0-0.1 0-0.2 0-0.1 0-0.2 0-0.1 0-0.2 0 0-0.1-0.1 0 0-0.1 0v1.1q0.1 0 0.1-0.1z"/>
		<path id="Layer" class="s4" d="m22.8 55.4q-0.1 0-0.1-0.1 0 0-0.1-0.1 0 0 0-0.1 0-0.1 0-0.2 0-0.2 0-0.3 0-0.1 0.1-0.2 0-0.1 0.1-0.1v1.1zm0 0v-1.1h2.1l-0.7 0.6v-4.1h1.2v4.6zm0.7-5.4v-1h1.1v1zm0.9-1.4v-0.9h1.1v0.9zm0.7 1.4v-1h1.2v1zm0.4 5.4v-1.1h1.1v1.1zm1.1 0v-1.1q0.1 0 0.1 0.1 0 0 0.1 0.1 0 0 0 0.1 0 0.1 0 0.2 0 0.2 0 0.3 0 0.1 0 0.1-0.1 0.1-0.1 0.1 0 0.1-0.1 0.1z"/>
		<path id="Layer" fill-rule="evenodd" class="s4" d="m26.5 55.3q-0.1 0-0.1-0.1 0 0 0-0.1 0-0.1 0-0.2 0-0.2 0-0.3 0-0.1 0.1-0.2 0-0.1 0.1-0.1v1.1q-0.1 0-0.1-0.1zm0.1-1h2.2v1.1h-2.2c0 0 0-1.1 0-1.1q0 0 0 0zm2.3 1q0 0 0.1-0.1 0 0 0-0.1 0-0.1 0-0.3 0-0.1 0-0.2 0-0.1 0-0.1-0.1-0.1-0.1-0.1 0-0.1-0.1-0.1v1.1q0.1 0 0.1-0.1z"/>
		<path id="Layer" class="s4" d="m28.8 55.4q0 0-0.1-0.1 0 0 0-0.1 0 0-0.1-0.1 0-0.1 0-0.2 0-0.2 0.1-0.3 0-0.1 0-0.2 0.1-0.1 0.1-0.1v1.1zm0 0v-1.1h1.1v1.1zm1 0v-6.4h1.2v6.4z"/>
		<path id="Layer" class="s4" d="m32.5 55.4v-6.4h1.2v6.4z"/>
		<path id="Layer" class="s4" d="m39.8 55.4q-0.9 0-1.6-0.3-0.7-0.2-1-0.7-0.3-0.5-0.3-1.3 0-0.2 0-0.4 0-0.3 0-0.5 0.1-0.2 0.1-0.4 0.1-0.1 0.1-0.2l1.2 0.2q-0.1 0.1-0.1 0.4-0.1 0.2-0.1 0.4 0 0.3 0 0.5 0 0.4 0.1 0.6 0.1 0.2 0.3 0.4 0.2 0.1 0.6 0.2 0.3 0 0.8 0h2.4v-3.5h1.2v4.6zm-1-4.8v-1h1.1v1zm1.7 0v-1h1.1v1z"/>
		<path id="Layer" class="s4" d="m44.9 55.4v-6.4h1.2v6.4z"/>
		<path id="Layer" class="s4" d="m47.3 55.4v-1.1h3.2l-0.8 0.7v-1.5q0-0.6-0.1-1-0.1-0.3-0.4-0.5-0.3-0.1-0.9-0.1h-0.7v-1.1h0.7q0.9 0 1.4 0.3 0.6 0.3 0.9 0.9 0.3 0.6 0.3 1.5v1.9zm3.7 0v-1.1h1v1.1zm0.9 0v-1.1q0 0 0.1 0.1 0 0 0 0.1 0.1 0 0.1 0.1 0 0.1 0 0.2 0 0.2 0 0.3 0 0.1-0.1 0.1 0 0.1 0 0.1-0.1 0.1-0.1 0.1z"/>
		<path id="Layer" fill-rule="evenodd" class="s4" d="m51.8 55.3q0 0-0.1-0.1 0 0 0-0.1 0-0.1 0-0.2 0-0.2 0-0.3 0-0.1 0.1-0.2 0-0.1 0.1-0.1v1.1q-0.1 0-0.1-0.1zm0.1-1h2.2v1.1h-2.2c0 0 0-1.1 0-1.1q0 0 0 0zm2.3 1q0.1 0 0.1-0.1 0 0 0-0.1 0-0.1 0-0.3 0-0.1 0-0.2 0-0.1 0-0.1 0-0.1-0.1-0.1 0-0.1-0.1-0.1v1.1q0.1 0 0.1-0.1z"/>
		<path id="Layer" class="s4" d="m54.1 55.4q0 0 0-0.1-0.1 0-0.1-0.1 0 0 0-0.1 0-0.1 0-0.2 0-0.2 0-0.3 0-0.1 0-0.2 0.1-0.1 0.1-0.1v1.1zm0 0v-1.1h2q0.4 0 0.7-0.1 0.4-0.2 0.7-0.4 0.3-0.3 0.5-0.6 0.2-0.3 0.4-0.6 0.1-0.3 0.1-0.6v-0.6l0.6 1q-0.5-0.3-1-0.4-0.5-0.1-0.9-0.1-0.4 0-0.9 0.1-0.5 0.1-1 0.4l0.6-1v0.6q0 0.3 0.1 0.6 0.1 0.3 0.4 0.6 0.2 0.3 0.5 0.6 0.3 0.2 0.7 0.4 0.3 0.1 0.7 0.1h1.9v1.1h-1.5q-0.7 0-1.3-0.2-0.6-0.3-1.1-0.6-0.5-0.4-0.9-0.9-0.3-0.4-0.5-0.9-0.2-0.4-0.2-0.8v-0.5q0.4-0.2 0.8-0.4 0.5-0.1 0.9-0.2 0.4-0.1 0.8-0.1 0.4 0 0.8 0.1 0.4 0.1 0.9 0.2 0.4 0.2 0.8 0.4v0.5q0 0.4-0.2 0.8-0.2 0.5-0.5 0.9-0.4 0.5-0.9 0.9-0.5 0.3-1.1 0.6-0.6 0.2-1.3 0.2zm6 0v-1.1q0.1 0 0.1 0.1 0.1 0 0.1 0.1 0 0 0 0.1 0 0.1 0 0.2 0 0.2 0 0.3 0 0.1 0 0.1 0 0.1-0.1 0.1 0 0.1-0.1 0.1z"/>
		<path id="Layer" class="s4" d="m60.2 55.4q-0.1 0-0.1-0.1 0 0-0.1-0.1 0 0 0-0.1 0-0.1 0-0.2 0-0.2 0-0.3 0-0.1 0.1-0.2 0-0.1 0.1-0.1v1.1zm0 0v-1.1h2.2v1.1zm2.3 0v-1.1q0.1 0 0.1 0.1 0 0 0.1 0.1 0 0 0 0.1 0 0.1 0 0.2 0 0.2 0 0.3 0 0.1 0 0.1-0.1 0.1-0.1 0.1 0 0.1-0.1 0.1z"/>
		<path id="Layer" class="s4" d="m62.4 55.4q0 0 0-0.1-0.1 0-0.1-0.1 0 0 0-0.1 0-0.1 0-0.2 0-0.2 0-0.3 0-0.1 0-0.2 0.1-0.1 0.1-0.1v1.1zm0 0v-1.1h4.7l-0.5 0.5v-1.7q0-0.5-0.1-0.7-0.1-0.3-0.4-0.4-0.2-0.1-0.7-0.1-0.4 0-0.7 0-0.4 0.1-0.6 0.1l0.7-0.7q0 0.2-0.1 0.6 0 0.3 0 0.6-0.1 0.4-0.1 0.7 0 0.4 0.1 0.7 0 0.3 0 0.6 0.1 0.3 0.1 0.4l-1.2 0.3q0-0.1-0.1-0.4 0-0.3-0.1-0.7 0-0.4 0-0.8 0-0.5 0-0.9 0.1-0.5 0.2-0.8 0-0.3 0.1-0.5 0.2-0.1 0.6-0.2 0.5-0.1 1.1-0.1 0.8 0 1.3 0.2 0.6 0.3 0.8 0.8 0.3 0.5 0.3 1.4v2.2c0 0-5.4 0-5.4 0zm5.4 0v-1.1h1v1.1zm0.9 0v-1.1q0.1 0 0.1 0.1 0 0 0 0.1 0.1 0 0.1 0.1 0 0.1 0 0.2 0 0.2 0 0.3 0 0.1-0.1 0.1 0 0.1 0 0.1 0 0.1-0.1 0.1z"/>
		<path id="Layer" fill-rule="evenodd" class="s4" d="m68.7 55.3q-0.1 0-0.1-0.1 0 0 0-0.1 0-0.1 0-0.2 0-0.2 0-0.3 0-0.1 0-0.2 0.1-0.1 0.1-0.1v1.1q0 0 0-0.1zm0-1h2.3v1.1h-2.3c0 0 0-1.1 0-1.1q0 0 0 0zm2.4 1q0 0 0-0.1 0.1 0 0.1-0.1 0-0.1 0-0.3 0-0.1 0-0.2 0-0.1-0.1-0.1 0-0.1 0-0.1-0.1-0.1-0.1-0.1v1.1q0 0 0.1-0.1z"/>
		<path id="Layer" class="s4" d="m71 55.4q0 0-0.1-0.1 0 0 0-0.1-0.1 0-0.1-0.1 0-0.1 0-0.2 0-0.2 0-0.3 0.1-0.1 0.1-0.2 0.1-0.1 0.1-0.1v1.1zm0 0v-1.1h1v1.1zm1.1 0v-6.4h1.2v6.4z"/>
		<path id="Layer" class="s4" d="m74.7 55.4v-6.4h1.2v6.4z"/>
		<path id="Layer" class="s4" d="m79.2 58.4q0-0.5-0.1-1-0.1-0.4-0.1-0.8 0-0.7 0.3-1.2 0.3-0.5 0.8-0.8 0.5-0.3 1.2-0.3 0.1 0 0.3 0 0.2 0 0.5 0 0.2 0 0.6 0 0.3 0 0.7 0l-0.5 0.6v-1.8q0-0.4-0.1-0.7-0.1-0.3-0.4-0.4-0.3-0.1-0.8-0.1-0.3 0-0.7 0-0.3 0.1-0.5 0.2l0.7-0.7q-0.1 0.2-0.1 0.5-0.1 0.3-0.1 0.7 0 0.3 0 0.6 0 0.4 0 0.7 0.1 0.4 0.1 0.6 0 0.3 0.1 0.4l-1.2 0.3q0-0.1-0.1-0.4 0-0.3-0.1-0.7 0-0.4 0-0.8 0-0.5 0-0.9 0.1-0.4 0.1-0.8 0.1-0.3 0.1-0.5 0.3-0.1 0.7-0.2 0.5-0.1 1-0.1 0.6 0 1 0.2 0.5 0.1 0.7 0.3 0.3 0.2 0.5 0.5 0.1 0.3 0.2 0.6 0.1 0.4 0.1 0.8v2.2q-0.4 0-0.9 0-0.4 0-0.8 0-0.4 0-0.7 0-0.3 0-0.5 0-0.1 0-0.3 0-0.1 0.1-0.3 0.2-0.2 0.1-0.3 0.3-0.1 0.3-0.1 0.7 0 0.3 0.1 0.8 0.1 0.4 0.1 1h-1.2zm4.9-3v-1.1h0.9v1.1zm1 0v-1.1q0 0 0.1 0 0 0.1 0 0.1 0 0.1 0 0.2 0 0.1 0 0.2 0 0.1 0 0.3 0 0 0 0.1 0 0.1 0 0.1-0.1 0.1-0.1 0.1z"/>
		<path id="Layer" class="s4" d="m85 55.4q0 0-0.1-0.1 0 0 0-0.1 0 0-0.1-0.1 0-0.1 0-0.2 0-0.2 0.1-0.3 0-0.1 0-0.2 0.1-0.1 0.1-0.1v1.1zm0 0v-1.1h2.3v1.1zm2.3 0v-1.1q0 0 0 0.1 0.1 0 0.1 0.1 0 0 0 0.1 0 0.1 0 0.2 0 0.2 0 0.3 0 0.1 0 0.1 0 0.1-0.1 0.1 0 0.1 0 0.1z"/>
		<path id="Layer" class="s4" d="m87.3 55.4q-0.1 0-0.1-0.1 0 0-0.1-0.1 0 0 0-0.1 0-0.1 0-0.2 0-0.2 0-0.3 0-0.1 0.1-0.2 0-0.1 0.1-0.1v1.1zm0 0v-1.1h2.1l-0.7 0.6v-4.1h1.2v4.6zm0.4 1.9v-1h1.1v1zm1.7 0v-1h1.1v1zm0.7-1.9v-1.1h1.1v1.1zm1.2 0v-1.1q0 0 0.1 0.1 0 0 0 0.1 0 0 0 0.1 0 0.1 0 0.2 0 0.2 0 0.3 0 0.1 0 0.1 0 0.1 0 0.1-0.1 0.1-0.1 0.1z"/>
		<path id="Layer" class="s4" d="m91 55.4q0 0 0-0.1-0.1 0-0.1-0.1 0 0 0-0.1 0-0.1 0-0.2 0-0.2 0-0.3 0-0.1 0-0.2 0.1-0.1 0.2-0.1v1.1zm0 0v-1.1h2.2v1.1zm2.3 0v-1.1q0 0 0.1 0.1 0 0 0 0.1 0 0 0 0.1 0.1 0.1 0.1 0.2 0 0.2-0.1 0.3 0 0.1 0 0.1 0 0.1 0 0.1-0.1 0.1-0.1 0.1z"/>
		<path id="Layer" class="s4" d="m93.3 55.4q-0.1 0-0.1-0.1 0 0 0-0.1-0.1 0-0.1-0.1 0-0.1 0-0.2 0-0.2 0-0.3 0.1-0.1 0.1-0.2 0-0.1 0.1-0.1v1.1zm0 0v-1.1h6.3l-1 0.9v-1.9q0-0.5-0.1-0.8-0.2-0.3-0.4-0.5-0.3-0.1-0.7-0.1-0.3 0-0.7 0.1-0.3 0.2-0.6 0.4-0.3 0.3-0.6 0.6-0.2 0.2-0.4 0.5-0.2 0.3-0.4 0.4l-0.3-0.8q0.4-0.5 0.7-0.9 0.4-0.4 0.7-0.7 0.4-0.3 0.8-0.5 0.4-0.2 1-0.2 0.6 0 1 0.2 0.4 0.2 0.7 0.6 0.3 0.4 0.4 0.8 0.1 0.4 0.1 0.9v2.1h-6.5zm0.6-1.1v-5.3h1.2v5.3zm2.7-4.3v-1h1.2v1zm3 5.4v-1.1h1v1.1zm0.9 0v-1.1q0.1 0 0.1 0.1 0.1 0 0.1 0.1 0 0 0 0.1 0 0.1 0 0.3 0 0.1 0 0.2 0 0.1 0 0.2-0.1 0-0.1 0.1 0 0-0.1 0z"/>
		<path id="Layer" class="s4" d="m100.6 55.4q-0.1 0-0.1-0.1-0.1 0-0.1-0.1 0 0 0-0.1 0-0.1 0-0.2 0-0.2 0-0.3 0-0.1 0.1-0.2 0-0.1 0.1-0.1v1.1zm0 0v-1.1h2.2v1.1zm2.3 0v-1.1q0 0 0.1 0.1 0 0 0 0.1 0 0 0.1 0.1 0 0.1 0 0.2 0 0.2 0 0.3-0.1 0.1-0.1 0.1 0 0.1 0 0.1 0 0.1-0.1 0.1z"/>
		<path id="Layer" class="s4" d="m102.8 55.4q0 0-0.1-0.1 0 0 0-0.1 0 0-0.1-0.1 0-0.1 0-0.2 0-0.2 0.1-0.3 0-0.1 0-0.2 0.1-0.1 0.1-0.1v1.1zm0 0v-1.1h1.7l-0.7 0.6v-4.1h1.2v4.6zm0.9-5.4v-1h1.3v1zm1.2 5.4v-1.1h0.9v1.1zm1 0v-1.1q0 0 0.1 0.1 0 0 0 0.1 0 0 0 0.1 0 0.1 0 0.2 0 0.2 0 0.3 0 0.1 0 0.1 0 0.1 0 0.1-0.1 0.1-0.1 0.1z"/>
		<path id="Layer" class="s4" d="m105.9 55.4q0 0-0.1-0.1 0 0 0-0.1 0 0 0-0.1-0.1-0.1-0.1-0.2 0.1-0.2 0.1-0.3 0-0.1 0-0.2 0.1-0.1 0.1-0.1v1.1zm0 0v-1.1h2.3v1.1zm2.3 0v-1.1q0 0 0.1 0.1 0 0 0 0.1 0 0 0 0.1 0.1 0.1 0 0.2 0.1 0.2 0 0.3 0 0.1 0 0.1 0 0.1 0 0.1-0.1 0.1-0.1 0.1z"/>
		<path id="Layer" class="s4" d="m108.2 55.4q-0.1 0-0.1-0.1 0 0 0-0.1-0.1 0-0.1-0.1 0-0.1 0-0.2 0-0.2 0-0.3 0-0.1 0.1-0.2 0-0.1 0.1-0.1v1.1zm0 0v-1.1h2.2l-0.8 0.6v-4.1h1.2v4.6zm0.7-5.4v-1h1.1v1zm1.7 0v-1h1.2v1z"/>
		<path id="Layer" class="s4" d="m113.8 57.6q-0.1 0-0.2 0-0.2 0-0.3 0v-1.1q0.2 0.1 0.3 0.1 0.1 0 0.2 0 0.3 0 0.6-0.3 0.2-0.3 0.2-0.8v-4.7h1.2v4.7q0 0.6-0.3 1.1-0.2 0.5-0.7 0.7-0.4 0.3-1 0.3zm0.8-7.6v-1h1.2v1zm1 5.4v-1.1h1.1v1.1zm1.2 0v-1.1q0.1 0 0.1 0.1 0 0 0 0.1 0.1 0 0.1 0.1 0 0.1 0 0.2 0 0.2 0 0.3 0 0.1-0.1 0.1 0 0.1 0 0.1 0 0.1-0.1 0.1z"/>
		<path id="Layer" class="s4" d="m116.7 55.4q0 0-0.1-0.1 0 0 0-0.1 0 0 0-0.1-0.1-0.1-0.1-0.2 0-0.2 0.1-0.3 0-0.1 0-0.2 0.1-0.1 0.1-0.1v1.1zm0 0v-1.1h2.3v1.1zm2.3 0v-1.1q0 0 0 0.1 0.1 0 0.1 0.1 0 0 0 0.1 0 0.1 0 0.2 0 0.2 0 0.3 0 0.1 0 0.1 0 0.1-0.1 0.1 0 0.1 0 0.1z"/>
		<path id="Layer" class="s4" d="m119 55.4q-0.1 0-0.1-0.1 0 0 0-0.1-0.1 0-0.1-0.1 0-0.1 0-0.2 0-0.2 0-0.3 0-0.1 0.1-0.2 0-0.1 0.1-0.1v1.1zm0 0v-1.1h4.5l-0.4 0.3v-1.2q0-0.5-0.1-0.7-0.1-0.3-0.3-0.4-0.2-0.2-0.5-0.2h-2l-0.7-1.1 0.5-0.8q0-0.2 0.1-0.4 0.1-0.1 0.3-0.4 0.2-0.2 0.4-0.6l1 0.5q-0.2 0.4-0.4 0.6-0.1 0.3-0.2 0.4-0.1 0.2-0.2 0.4l-0.3 0.7-0.2-0.3h1.7q0.6 0 1 0.2 0.4 0.2 0.7 0.5 0.2 0.3 0.3 0.7 0.2 0.5 0.2 0.9v2h-5.4z"/>
		<path id="Layer" class="s4" d="m125.3 57.6q-0.1 0-0.2 0-0.2 0-0.3 0v-1.1q0.2 0.1 0.3 0.1 0.1 0 0.2 0 0.3 0 0.6-0.3 0.2-0.3 0.2-0.8v-4.7h1.2v4.7q0 0.6-0.3 1.1-0.2 0.5-0.7 0.7-0.4 0.3-1 0.3zm1.8-2.2v-1.1h1.1v1.1zm1.2 0v-1.1q0 0 0.1 0.1 0 0 0 0.1 0 0 0.1 0.1 0 0.1 0 0.2 0 0.2 0 0.3-0.1 0.1-0.1 0.1 0 0.1 0 0.1 0 0.1-0.1 0.1z"/>
		<path id="Layer" fill-rule="evenodd" class="s4" d="m128.1 55.3q0 0 0-0.1 0 0 0-0.1-0.1-0.1-0.1-0.2 0-0.2 0.1-0.3 0-0.1 0-0.2 0.1-0.1 0.1-0.1v1.1q0 0-0.1-0.1zm0.1-1h2.3v1.1h-2.3c0 0 0-1.1 0-1.1q0 0 0 0zm2.4 1q0 0 0-0.1 0 0 0.1-0.1 0-0.1 0-0.3 0-0.1 0-0.2-0.1-0.1-0.1-0.1 0-0.1 0-0.1-0.1-0.1-0.1-0.1v1.1q0 0 0.1-0.1z"/>
		<path id="Layer" class="s4" d="m130.5 55.4q-0.1 0-0.1-0.1 0 0 0-0.1-0.1 0-0.1-0.1 0-0.1 0-0.2 0-0.2 0-0.3 0-0.1 0.1-0.2 0-0.1 0.1-0.1v1.1zm0 0v-1.1h4.7l-0.5 0.5v-1.7q0-0.5-0.2-0.7-0.1-0.3-0.3-0.4-0.3-0.1-0.8-0.1-0.3 0-0.7 0-0.4 0.1-0.6 0.1l0.8-0.7q-0.1 0.2-0.1 0.6-0.1 0.3-0.1 0.6 0 0.4 0 0.7 0 0.4 0 0.7 0 0.3 0.1 0.6 0 0.3 0 0.4l-1.1 0.3q0-0.1-0.1-0.4-0.1-0.3-0.1-0.7 0-0.4 0-0.8 0-0.5 0-0.9 0-0.5 0.1-0.8 0.1-0.3 0.1-0.5 0.2-0.1 0.7-0.2 0.5-0.1 1-0.1 0.8 0 1.4 0.2 0.5 0.3 0.8 0.8 0.2 0.5 0.2 1.4v2.2c0 0-5.3 0-5.3 0z"/>
		<path id="Layer" class="s4" d="m2 36.2l0.2-1.2q1.1 0.5 2.2 0.5 0.8 0 1.3-0.3 0.5-0.3 0.5-0.9 0-0.4-0.4-0.7-0.3-0.4-1.4-0.9-1.2-0.6-1.7-1-0.6-0.6-0.6-1.4 0-1.2 0.9-1.8 0.7-0.5 2-0.5 1.2 0 2.1 0.4l-0.2 1.2q-1.1-0.5-1.9-0.5-1.6 0-1.6 1.1 0 0.3 0.3 0.6 0.4 0.3 1.3 0.8 1.3 0.6 1.8 1 0.7 0.6 0.7 1.5 0 1.3-1 2-0.8 0.6-2.1 0.6-1.4 0-2.4-0.5z"/>
		<path id="Layer" fill-rule="evenodd" class="s4" d="m14.1 35.7l0.1 0.7q-0.4 0.2-1 0.2-0.4 0-0.7-0.2-0.3-0.2-0.3-0.6-0.5 0.8-1.7 0.8-2 0-2-1.7 0-1.2 1-1.7 0.6-0.4 1.7-0.4 0.4 0 1 0.1v-0.6q0-0.5-0.3-0.7-0.3-0.2-1.1-0.2-1 0-1.8 0.4l0.2-1q0.8-0.4 1.9-0.4 1.3 0 1.8 0.6 0.5 0.5 0.5 1.7v2.8q0 0.3 0.4 0.3 0.1 0 0.3-0.1zm-1.9-1.4v-0.6q-0.6 0-0.9 0-0.8 0-1.1 0.2-0.4 0.3-0.4 0.8 0 0.9 1.1 0.9 0.5 0 0.9-0.3 0.4-0.4 0.4-1z"/>
		<path id="Layer" class="s4" d="m21 35.7l0.1 0.7q-0.4 0.2-1 0.2-0.4 0-0.7-0.2-0.3-0.3-0.3-0.7-0.4 0.4-1 0.7-0.6 0.2-1 0.2-1.1 0-1.4-0.4-0.5-0.4-0.5-1.5v-4.2h1.3v4.1q0 0.5 0.1 0.7 0.2 0.2 0.6 0.2 0.5 0 1.1-0.2 0.6-0.3 0.8-0.6v-4.2h1.2v5q0 0.3 0.3 0.3 0.2 0 0.4-0.1z"/>
		<path id="Layer" fill-rule="evenodd" class="s4" d="m28.3 35.7l0.2 0.7q-0.5 0.2-1 0.2-0.5 0-0.8-0.2-0.2-0.2-0.2-0.7-0.4 0.9-2.1 0.9-1 0-1.7-0.7-0.7-0.8-0.7-2.3 0-1.5 0.8-2.4 0.7-0.8 1.9-0.8 1 0 1.8 0.3v-2.6h1.2v7.4q0 0.3 0.3 0.3 0.2 0 0.3-0.1zm-1.8-1.7v-2.3q-0.8-0.3-1.5-0.3-0.9 0-1.3 0.5-0.4 0.5-0.4 1.6 0 1.2 0.4 1.6 0.3 0.5 1.1 0.5 0.8 0 1.3-0.5 0.4-0.5 0.4-1.1z"/>
		<path id="Layer" class="s4" d="m31 28.6q0 0.3-0.3 0.5-0.2 0.3-0.5 0.3-0.3 0-0.6-0.3-0.2-0.2-0.2-0.5 0-0.3 0.2-0.5 0.3-0.3 0.6-0.3 0.3 0 0.5 0.3 0.3 0.2 0.3 0.5zm0.4 7.1l0.2 0.7q-0.4 0.2-1 0.2-0.5 0-0.8-0.2-0.2-0.3-0.2-0.7v-5.2h1.2v5q0 0.3 0.3 0.3 0.2 0 0.3-0.1z"/>
		<path id="Layer" class="s4" d="m37.2 36.2l0.2-1.2q1.1 0.5 2.2 0.5 0.8 0 1.3-0.3 0.5-0.3 0.5-0.9 0-0.4-0.3-0.7-0.4-0.4-1.5-0.9-1.2-0.6-1.6-1-0.7-0.6-0.7-1.4 0-1.2 0.9-1.8 0.7-0.5 2.1-0.5 1.1 0 2.1 0.4l-0.2 1.2q-1.2-0.5-2-0.5-1.6 0-1.6 1.1 0 0.3 0.3 0.6 0.4 0.3 1.4 0.8 1.2 0.6 1.7 1 0.7 0.6 0.7 1.5 0 1.3-1 2-0.8 0.6-2.1 0.6-1.4 0-2.4-0.5z"/>
		<path id="Layer" class="s4" d="m46.9 35.5l0.2 0.9q-0.7 0.2-1.4 0.2-0.7 0-1-0.3-0.3-0.4-0.3-1.2v-3.6h-0.9l0.2-1h0.7v-1.6l1.2-0.4v2h1.3v1h-1.3v3.4q0.1 0.5 0.2 0.6 0.1 0.1 0.5 0.1 0.3 0 0.6-0.1z"/>
		<path id="Layer" fill-rule="evenodd" class="s4" d="m53.5 35.7l0.2 0.7q-0.5 0.2-1 0.2-0.5 0-0.7-0.2-0.3-0.2-0.3-0.6-0.5 0.8-1.8 0.8-1.9 0-1.9-1.7 0-1.2 0.9-1.7 0.7-0.4 1.8-0.4 0.4 0 1 0.1v-0.6q0-0.5-0.3-0.7-0.4-0.2-1.2-0.2-0.9 0-1.8 0.4l0.2-1q0.8-0.4 2-0.4 1.3 0 1.8 0.6 0.5 0.5 0.5 1.7v2.8q0 0.3 0.3 0.3 0.2 0 0.3-0.1zm-1.8-1.4v-0.6q-0.6 0-0.9 0-0.8 0-1.2 0.2-0.4 0.3-0.4 0.8 0 0.9 1.1 0.9 0.6 0 1-0.3 0.4-0.4 0.4-1z"/>
		<path id="Layer" class="s4" d="m60.5 35.7l0.2 0.7q-0.4 0.2-1 0.2-0.5 0-0.8-0.2-0.2-0.2-0.2-0.7v-3.2q0-0.6-0.2-0.8-0.2-0.2-0.6-0.2-0.5 0-1 0.3-0.6 0.2-1 0.6v4.1h-1.2v-6h1.2v0.8q0.4-0.4 1-0.6 0.7-0.3 1.2-0.3 1 0 1.3 0.4 0.5 0.5 0.5 1.6v3q0 0.4 0.3 0.4 0.2 0 0.3-0.1z"/>
		<path id="Layer" fill-rule="evenodd" class="s4" d="m67.9 35.7l0.1 0.7q-0.4 0.2-1 0.2-0.4 0-0.7-0.2-0.3-0.2-0.3-0.7-0.4 0.9-2 0.9-1.1 0-1.7-0.7-0.7-0.8-0.7-2.3 0-1.5 0.7-2.4 0.7-0.8 2-0.8 1 0 1.7 0.3v-2.6h1.2v7.4q0 0.3 0.3 0.3 0.2 0 0.4-0.1zm-1.9-1.7v-2.3q-0.8-0.3-1.4-0.3-0.9 0-1.3 0.5-0.4 0.5-0.4 1.6 0 1.2 0.3 1.6 0.4 0.5 1.2 0.5 0.8 0 1.2-0.5 0.4-0.5 0.4-1.1z"/>
		<path id="Layer" fill-rule="evenodd" class="s4" d="m74.4 35.7l0.1 0.7q-0.4 0.2-1 0.2-0.4 0-0.7-0.2-0.3-0.2-0.3-0.6-0.5 0.8-1.7 0.8-2 0-2-1.7 0-1.2 0.9-1.7 0.7-0.4 1.8-0.4 0.4 0 1 0.1v-0.6q0-0.5-0.3-0.7-0.3-0.2-1.2-0.2-0.9 0-1.8 0.4l0.2-1q0.9-0.4 2-0.4 1.3 0 1.8 0.6 0.5 0.5 0.5 1.7v2.8q0 0.3 0.3 0.3 0.2 0 0.4-0.1zm-1.9-1.4v-0.6q-0.6 0-0.9 0-0.8 0-1.1 0.2-0.4 0.3-0.4 0.8 0 0.9 1.1 0.9 0.5 0 0.9-0.3 0.4-0.4 0.4-1z"/>
		<path id="Layer" class="s4" d="m76.7 36.5h-1.2v-6h1.2v0.8q0.2-0.4 0.5-0.6 0.3-0.3 0.7-0.3 0.5 0 1.1 0.4l-0.2 0.9q-0.6-0.1-1-0.1-0.6 0-1.1 0.8z"/>
		<path id="Layer" fill-rule="evenodd" class="s4" d="m86 35.7l0.2 0.7q-0.5 0.2-1 0.2-0.5 0-0.8-0.2-0.2-0.2-0.2-0.7-0.4 0.9-2.1 0.9-1.1 0-1.7-0.7-0.7-0.8-0.7-2.3 0-1.5 0.8-2.4 0.7-0.8 1.9-0.8 1 0 1.8 0.3v-2.6h1.2v7.4q0 0.3 0.3 0.3 0.2 0 0.3-0.1zm-1.9-1.7v-2.3q-0.8-0.3-1.4-0.3-0.9 0-1.3 0.5-0.4 0.5-0.4 1.6 0 1.2 0.4 1.6 0.3 0.5 1.1 0.5 0.8 0 1.3-0.5 0.4-0.5 0.3-1.1z"/>
		<path id="Layer" class="s4" d="m87 36.4l0.3-1.1q0.3 0.2 0.8 0.3 0.5 0.1 0.8 0.1 1.4 0 1.4-0.9 0-0.3-0.2-0.5-0.3-0.2-1-0.4-1-0.4-1.4-0.7-0.5-0.4-0.5-1.1 0-0.8 0.6-1.2 0.7-0.5 1.8-0.5 1 0 1.7 0.3l-0.2 1q-0.7-0.3-1.5-0.3-1.2 0-1.2 0.6 0 0.3 0.2 0.4 0.3 0.2 1 0.4 1 0.4 1.4 0.7 0.6 0.5 0.6 1.3 0 0.9-0.8 1.4-0.7 0.4-1.7 0.4-1.2 0-2.1-0.2z"/>
		<path id="Layer" class="s4" d="m5.2 15.1q0.3 0 0.5-0.2 0.2-0.2 0.2-0.5 0-0.3-0.2-0.5-0.2-0.2-0.5-0.2-0.3 0-0.5 0.2-0.2 0.2-0.2 0.5 0 0.3 0.2 0.5 0.2 0.2 0.5 0.2z"/>
		<path id="Layer" class="s4" d="m3.4 15.1q0.3 0 0.5-0.2 0.2-0.2 0.2-0.5 0-0.3-0.2-0.5-0.2-0.2-0.5-0.2-0.3 0-0.5 0.2-0.2 0.2-0.2 0.5 0 0.3 0.2 0.5 0.2 0.2 0.5 0.2z"/>
		<path id="Layer" fill-rule="evenodd" class="s4" d="m7.7 22.6h-2.4v-0.7l-0.6 0.7h-0.4q-1.2 0-1.8-0.6-0.4-0.5-0.4-1.4v-2q-0.1-1 0.6-1.6 0.6-0.4 1.4-0.4h2.4v4.9h1.3q0.9 0 0.9-0.8v-4.1h1.2v4q0 1.1-0.7 1.6-0.6 0.4-1.5 0.4zm-2.4-4.9h-1.2q-0.8 0-0.8 0.9v2q0 0.5 0.2 0.7 0.2 0.2 0.7 0.2h1.1z"/>
		<path id="Layer" class="s4" d="m7.1 24.4q-0.3 0-0.5 0.2-0.3 0.2-0.2 0.5-0.1 0.3 0.2 0.5 0.2 0.2 0.5 0.2 0.3 0 0.5-0.2 0.2-0.2 0.2-0.5 0-0.3-0.2-0.5-0.2-0.2-0.5-0.2z"/>
		<path id="Layer" class="s4" d="m8.9 24.4q-0.3 0-0.5 0.2-0.2 0.2-0.2 0.5 0 0.3 0.2 0.5 0.2 0.2 0.5 0.2 0.3 0 0.5-0.2 0.2-0.2 0.2-0.5 0-0.3-0.2-0.5-0.2-0.2-0.5-0.2z"/>
		<path id="Layer" class="s4" d="m12.7 16.6h-0.9v1.1h0.8q1.8 0 1.8 1.8v1.1q0 0.9-0.9 0.9h-2.7v1.1h2.6q1.1 0 1.7-0.6 0.5-0.5 0.5-1.3v-1.3q0-1.3-0.8-2-0.9-0.8-2.1-0.8z"/>
		<path id="Layer" fill-rule="evenodd" class="s4" d="m40.3 14.1h1.2v6.5q0 1-0.6 1.5-0.6 0.5-1.5 0.5h-12.4q-0.5 0-1-0.3-0.5 0.3-1.1 0.3h-3.6v0.2q0 1.6-0.8 2.3-0.7 0.6-2.3 0.7l-0.8-1h0.2q2.5 0 2.5-1.8v-0.4h-1q-1.1 0-1.7-0.5-0.5-0.6-0.5-1.5v-2q-0.1-1 0.6-1.5 0.5-0.5 1.4-0.5h2.4v4.9h3.6q-0.8-1-1.9-1.9v-0.1q0-1.5 1-2.4 0.8-0.6 2-0.6 1.3 0 2.2 0.9 0.7 0.8 0.7 2.1v0.1q-0.9 0.8-1.9 1.9h3.7v-4.9h1.2v4.9h2.1v-4.9h1.2v4.9h2v-4.9h1.2v4.9h0.9q0.5 0 0.7-0.2 0.3-0.2 0.3-0.7c0 0 0-6.5 0-6.5zm-20.2 7.4v-3.8h-1.2q-0.4 0-0.6 0.2-0.2 0.2-0.2 0.7v2q0 0.5 0.2 0.7 0.2 0.2 0.9 0.2zm7.6-2.5q-0.1-0.6-0.7-1-0.5-0.3-1.1-0.3-0.7-0.1-1.2 0.4-0.5 0.4-0.6 0.9 0.8 0.7 1.8 1.8 0.9-1 1.8-1.8z"/>
		<path id="Layer" class="s4" d="m42.8 23.3l1.2-0.7v-8.5h-1.2z"/>
		<path id="Layer" class="s4" d="m50.9 15.1q0.3 0 0.5-0.2 0.2-0.2 0.2-0.5 0-0.3-0.2-0.5-0.2-0.2-0.5-0.2-0.3 0-0.5 0.2-0.2 0.2-0.2 0.5 0 0.3 0.2 0.5 0.2 0.2 0.5 0.2z"/>
		<path id="Layer" class="s4" d="m53.2 20.7q0 0.8-0.8 0.8h-4.5q-0.4 0-0.6-0.3-0.2-0.2-0.2-0.6v-2.6l-1.3 0.7v1.8q0 1 0.6 1.5 0.5 0.6 1.6 0.6h4.3q1 0 1.5-0.5 0.6-0.5 0.6-1.5v-4h-1.2z"/>
		<path id="Layer" class="s4" d="m49.1 15.1q0.3 0 0.5-0.2 0.2-0.2 0.2-0.5 0-0.3-0.2-0.5-0.3-0.2-0.5-0.2-0.3 0-0.6 0.2-0.2 0.2-0.2 0.5 0 0.3 0.2 0.5 0.3 0.2 0.6 0.2z"/>
		<path id="Layer" class="s4" d="m60.8 15.1q0.3 0 0.5-0.2 0.2-0.2 0.2-0.5 0-0.3-0.2-0.5-0.2-0.2-0.5-0.2-0.3 0-0.5 0.2-0.2 0.2-0.2 0.5 0 0.3 0.2 0.5 0.2 0.2 0.5 0.2z"/>
		<path id="Layer" class="s4" d="m73 23.3l1.2-0.7v-8.5h-1.2z"/>
		<path id="Layer" fill-rule="evenodd" class="s4" d="m87.8 20.6v-6.5h1.2v6.5q0 1-0.6 1.5-0.6 0.5-1.5 0.5h-0.5q-0.1 0.8-0.7 1.2-0.5 0.3-1.4 0.3-0.9 0-1.5-0.4-0.6-0.4-0.7-1.1h-2.1v0.2q0 1.6-0.8 2.3-0.7 0.6-2.3 0.7l-0.8-1h0.2q2.5 0 2.5-1.8v-0.4h-1q-1.1 0-1.7-0.5-0.6-0.6-0.6-1.5v-2q0-1 0.7-1.5 0.5-0.5 1.4-0.5h2.4v4.9h2.1v-2.9q0-1.2 0.7-1.7 0.6-0.4 1.5-0.4 1 0 1.6 0.5 0.6 0.6 0.6 1.6v2.9h0.3q0.5 0 0.8-0.2 0.2-0.2 0.2-0.7zm-9 0.9v-3.8h-1.2q-0.5 0-0.7 0.2-0.2 0.2-0.2 0.7v2q0 0.5 0.2 0.7 0.3 0.2 0.9 0.2zm6.6-3q0-0.9-1.1-0.9-1 0-1 0.9v3.6q0 0.9 1 0.9 1.1 0 1.1-0.9z"/>
		<path id="Layer" class="s4" d="m90.3 14.1v9.2l1.2-0.7v-8.5z"/>
		<path id="Layer" fill-rule="evenodd" class="s4" d="m71.7 18.4v2.3q0 0.8-0.5 1.3-0.5 0.6-1.6 0.6h-3.3v0.6l-1.2 0.6v-1.2h-2.1v-0.7l-0.6 0.7h-4.8q-0.8 0-1.4-0.6-0.5-0.5-0.5-1.2v-6.7h1.2v6.6q0 0.8 0.7 0.8h1v-2.9q0-1 0.6-1.6 0.6-0.4 1.4-0.4h2.4v4.9h2.1v-4.9h1.2v1l2.8-1q0.4-0.1 0.7-0.1 0.8 0 1.4 0.6 0.5 0.5 0.5 1.3zm-9.9-0.7h-1.2q-0.8 0-0.8 0.9v2.9h2zm8.7 0.7q0-0.3-0.1-0.6-0.2-0.2-0.5-0.2-0.3 0-0.7 0.2l-2.2 0.8q-0.5 0.1-0.6 0.3-0.1 0.1-0.1 0.5v2h3.4q0.8 0 0.8-0.8c0 0 0-2.2 0-2.2z"/>
	</g>
</svg>